<svg id="Layer_1" data-name="Layer 1" xmlns="http://www.w3.org/2000/svg" viewBox="0 0 292.16 387.65"><defs><style>.cls-1{fill:#21201f;}.cls-2{fill:#e6e3db;}</style></defs><path class="cls-1" d="M146.37,387.65c-4.64,0-8.8-4.57-12.16-8.26-.83-.91-1.62-1.78-2.3-2.43-8.58-8.32-17-17-25.1-25.77C61.5,302,30.43,254.62,11.84,206.46a148.25,148.25,0,0,1-6.52-18.74l-.05-.27A149.94,149.94,0,0,1,0,148C0,66.38,65.53,0,146.08,0a144.57,144.57,0,0,1,99.13,39.3,148.22,148.22,0,0,1,46.43,96.2,58.86,58.86,0,0,1,.43,7.67c.05,1.59.08,3.19.09,4.77a149.25,149.25,0,0,1-16.89,69.14,338.24,338.24,0,0,1-17.86,36.86,474.12,474.12,0,0,1-46.48,67.57c-10.26,12.61-21.61,25.45-33.72,38.14-6.49,6.78-13.17,13.52-19.88,20.06-.63.62-1.28,1.37-2,2.17-2.29,2.66-4.88,5.68-8.84,5.77Z"/><path class="cls-2" d="M289.53,143.55a57.11,57.11,0,0,0-.43-7.51C283,61.47,221.27,2.89,146.08,2.89,66.81,2.89,2.55,68,2.55,148.3a147.28,147.28,0,0,0,5.23,39v.07a143.45,143.45,0,0,0,6.42,18.46c20.66,53.5,55.36,101.24,94,143.22q12.06,13.11,24.86,25.52c3.27,3.16,8.36,10.31,13.44,10.19,4.32-.1,6.94-4.76,9.71-7.46q10-9.75,19.69-19.87c11.61-12.17,22.79-24.74,33.41-37.79a468.48,468.48,0,0,0,46-66.87A333.29,333.29,0,0,0,273,216.28a146.37,146.37,0,0,0,16.63-68C289.61,146.71,289.58,145.13,289.53,143.55ZM146.2,215.13a68.24,68.24,0,1,1,68.24-68.24,68.24,68.24,0,0,1-68.24,68.24Z"/></svg>