<?xml version="1.0" encoding="utf-8"?>
<!-- Generator: Adobe Illustrator 26.0.2, SVG Export Plug-In . SVG Version: 6.00 Build 0)  -->
<svg version="1.1" id="Layer_1" xmlns="http://www.w3.org/2000/svg" xmlns:xlink="http://www.w3.org/1999/xlink" x="0px" y="0px"
	 viewBox="0 0 98.7 22.7" style="enable-background:new 0 0 98.7 22.7;" xml:space="preserve">
<g>
	<g>
		<g>
			<path d="M58.4,7.9c-3.1-0.1-5.7,2.4-5.8,5.5c0,0.1,0,0.3,0,0.4c0.1,3.2,2.7,5.8,5.9,5.7c3.2-0.1,5.8-2.7,5.7-5.9
				C64.2,10.4,61.6,7.9,58.4,7.9z M58.4,16.9c-1.7,0-2.2-1.7-2.2-3.1c0-1.4,0.5-3.1,2.2-3.1s2.2,1.7,2.2,3.1
				C60.6,15.2,60.1,16.9,58.4,16.9z"/>
			<path d="M34.4,7.9c-1.4,0-2.7,0.7-3.5,1.9h0V8.2h-3.5l0,11.2H31v-6.1c0-1.2,0.6-2.4,2-2.4c2,0,1.8,1.6,1.8,3.1v5.4h3.6v-7.2
				C38.4,10.6,38.1,7.9,34.4,7.9z"/>
			<path d="M7.9,16.8C7.9,16.8,7.9,16.8,7.9,16.8c-1.7,0-2.3-1.6-2.3-3.1c0-1.6,0.3-3.4,2.4-3.4c1,0,1.8,0.7,1.8,1.7h3.6
				c-0.3-3.1-2.8-4.6-5.7-4.6c-3.7,0-6,2.7-6,6.4c-0.1,3.2,2.4,5.9,5.5,6c0.2,0,0.3,0,0.5,0c3.1,0,5.4-1.8,5.8-4.9H10
				C10,15.9,9.1,16.8,7.9,16.8z"/>
			<path d="M47.6,9.4L47.6,9.4c-0.8-1-1.9-1.6-3.2-1.5c-3.1,0-4.6,2.8-4.6,5.7c0,3.1,1.5,6.2,4.9,6.2c1.2,0,2.4-0.6,3-1.6h0v1.3h3.4
				l0-15.4h-3.6V9.4z M45.6,16.9c-1.7,0-2.2-1.7-2.2-3.2c0-1.4,0.6-3,2.2-3v0c1.6,0,2.1,1.5,2.1,3.1C47.7,15.2,47.4,16.9,45.6,16.9z
				"/>
			<path d="M69.2,10.2L69.2,10.2l0-2h-3.5l0,11.2h3.6v-5.5c-0.1-1.4,1-2.6,2.4-2.7c0.1,0,0.2,0,0.3,0c0.5,0,0.9,0.1,1.4,0.2V8.1
				C73.1,8,72.8,8,72.5,8C71.1,7.9,69.7,8.8,69.2,10.2z"/>
			<path d="M20.2,7.9c-3.1-0.1-5.7,2.4-5.8,5.5c0,0.1,0,0.3,0,0.4c0.1,3.2,2.7,5.8,5.9,5.7c3.2-0.1,5.8-2.7,5.7-5.9
				C26,10.4,23.4,7.9,20.2,7.9z M20.2,16.9c-1.7,0-2.2-1.7-2.2-3.1c0-1.4,0.5-3.1,2.2-3.1s2.2,1.7,2.2,3.1
				C22.4,15.2,21.9,16.9,20.2,16.9z"/>
			<path d="M87.8,4c-0.1,0-0.1,0-0.2,0c-4.4,0.1-7.9,3.6-7.8,8c0,0.1,0,0.1,0,0.2c0.1,4.4,3.6,7.9,8,7.8c0.1,0,0.1,0,0.2,0
				c4.4,0,7.9-3.6,7.8-8c0-0.1,0-0.1,0-0.2C95.7,7.5,92.1,4,87.8,4z M87.8,19.3c-0.1,0-0.1,0-0.2,0c-4-0.1-7.1-3.3-7.1-7.3v0
				c0-0.1,0-0.1,0-0.2c0-4,3.3-7.2,7.3-7.1c0.1,0,0.1,0,0.2,0c4,0.1,7.2,3.3,7.1,7.3c0,0.1,0,0.1,0,0.2C95,16.2,91.7,19.3,87.8,19.3
				z"/>
			<path d="M86.1,10.1c-0.4,0.9,0.9,2,0.9,2l-2.5-1.6l0.8-0.2V9.6h-3.8l11,7.2v-1.1l-1-0.6c-2.2-1.5-4.5-3.8-4.3-4.4
				c0.1-0.1,0.2-0.1,0.3-0.1h3.9l-2.1,2l0.5,0.5l4.2-3.3h-7C86.7,9.6,86.3,9.8,86.1,10.1z"/>
		</g>
	</g>
</g>
</svg>
