<svg id="Layer_1" data-name="Layer 1" xmlns="http://www.w3.org/2000/svg" viewBox="0 0 384 384"><defs><style>.cls-1{fill:#606060;stroke:#000;stroke-linecap:round;stroke-linejoin:round;stroke-width:4px;}</style></defs><path class="cls-1" d="M335.33,140.66a56.92,56.92,0,0,0-.43-7.51C328.75,58.58,267.07,0,191.88,0,112.61,0,48.35,65.1,48.35,145.41a147.46,147.46,0,0,0,5.23,39l0,.07A145,145,0,0,0,60,202.94c20.66,53.5,55.36,101.24,94,143.22q12.06,13.11,24.86,25.52c3.27,3.16,8.36,10.31,13.44,10.19,4.32-.1,6.94-4.76,9.71-7.46q10-9.75,19.69-19.87c11.61-12.17,22.79-24.74,33.41-37.79a467.54,467.54,0,0,0,46-66.87,332.35,332.35,0,0,0,17.68-36.49,146.29,146.29,0,0,0,16.63-68C335.41,143.82,335.38,142.24,335.33,140.66ZM192,212.24A68.24,68.24,0,1,1,260.24,144,68.24,68.24,0,0,1,192,212.24Z"/></svg>